<?xml version="1.0" encoding="UTF-8" standalone="no"?>
<!DOCTYPE svg PUBLIC "-//W3C//DTD SVG 1.1//EN" "http://www.w3.org/Graphics/SVG/1.1/DTD/svg11.dtd">
<svg version="1.1" xmlns="http://www.w3.org/2000/svg" xmlns:xlink="http://www.w3.org/1999/xlink" preserveAspectRatio="xMidYMid meet" viewBox="0 0 640 640" width="640" height="640"><defs><path d="M0 0L24 0L24 24L0 24L0 0Z" id="bO2d2qkRN"></path><path d="M12.54 1.05L12.8 1.11L13.05 1.19L13.29 1.3L13.52 1.42L13.74 1.57L13.94 1.73L14.13 1.9L14.3 2.1L14.46 2.3L14.6 2.52L14.72 2.76L14.82 3L19 3L19.23 3.01L19.46 3.05L19.67 3.12L19.88 3.2L20.07 3.31L20.25 3.44L20.41 3.59L20.56 3.75L20.69 3.93L20.8 4.12L20.88 4.33L20.95 4.54L20.99 4.77L21 5L21 19L20.99 19.23L20.95 19.46L20.88 19.67L20.8 19.88L20.69 20.07L20.56 20.25L20.41 20.41L20.25 20.56L20.07 20.69L19.88 20.8L19.67 20.88L19.46 20.95L19.23 20.99L19 21L5 21L4.77 20.99L4.54 20.95L4.33 20.88L4.12 20.8L3.93 20.69L3.75 20.56L3.59 20.41L3.44 20.25L3.31 20.07L3.2 19.88L3.12 19.67L3.05 19.46L3.01 19.23L3 19L3 5L3.01 4.77L3.05 4.54L3.12 4.33L3.2 4.12L3.31 3.93L3.44 3.75L3.59 3.59L3.75 3.44L3.93 3.31L4.12 3.2L4.33 3.12L4.54 3.05L4.77 3.01L5 3L9.18 3L9.28 2.76L9.4 2.52L9.54 2.3L9.7 2.1L9.87 1.9L10.06 1.73L10.26 1.57L10.48 1.42L10.71 1.3L10.95 1.19L11.2 1.11L11.46 1.05L11.72 1.01L12 1L12.28 1.01L12.54 1.05ZM7.41 11.59L6 13L10 17L18 9L16.59 7.58L10 14.17L7.41 11.59ZM11.29 3.29L11.08 3.61L11 4L11.08 4.39L11.29 4.71L11.61 4.92L12 5L12.39 4.92L12.71 4.71L12.92 4.39L13 4L12.92 3.61L12.71 3.29L12.39 3.08L12 3L11.61 3.08L11.29 3.29Z" id="a2CZLBvWmv"></path></defs><g><g><g><use xlink:href="#bO2d2qkRN" opacity="1" fill="#000000" fill-opacity="0"></use><g><use xlink:href="#bO2d2qkRN" opacity="1" fill-opacity="0" stroke="#000000" stroke-width="1" stroke-opacity="0"></use></g></g><g><use xlink:href="#a2CZLBvWmv" opacity="1" fill="#4786c8" fill-opacity="1"></use><g><use xlink:href="#a2CZLBvWmv" opacity="1" fill-opacity="0" stroke="#000000" stroke-width="1" stroke-opacity="0"></use></g></g></g></g></svg>